#format: frame checksums
#version: 2
#hash: MD5
#tb 0: 1001/30000
#media_type 0: video
#codec_id 0: rawvideo
#dimensions 0: 196x200
#sar 0: 1/1
#stream#, dts,        pts, duration,     size, hash
0,          0,          0,        1,    58800, b2f2ac3e3833ae1b4dd075fe00210373
0,          1,          1,        1,    58800, c0cce05e56a07111fe62553fa3a87074
0,          2,          2,        1,    58800, 626aab3de03242073e03504e166b4697
0,          3,          3,        1,    58800, 574d2c810f0bbfac57f1f06c2b97445c
0,          4,          4,        1,    58800, 7d5bc5860bd1422d08396fe080452099
0,          5,          5,        1,    58800, 5d47bbfb0f5cdecfe8415ca2caddc206
0,          6,          6,        1,    58800, fbef6a0fa51029d0475975945ccf4b36
0,          7,          7,        1,    58800, c9179c153bcb2a8e9d17ed04e5e2c39c
0,          8,          8,        1,    58800, 107d796592cf2140d4d492beadba2d68
0,          9,          9,        1,    58800, eee46f9ee67fc1121bffb63aeb7c768f
